<svg xmlns="http://www.w3.org/2000/svg" viewBox="0 0 24 24">
    <g data-name="Layer 2">
        <g data-name="download">
            <path d="M12 15a1 1 0 0 1-.58-.18l-4-2.82a1 1 0 0 1-.24-1.39 1 1 0 0 1 1.4-.24L12 12.76l3.4-2.56a1 1 0 0 1 1.2 1.6l-4 3a1 1 0 0 1-.6.2z" transform="scale(0.7, 0.7) translate(5, 5)"/>
            <path d="M12 13a1 1 0 0 1-1-1V4a1 1 0 0 1 2 0v8a1 1 0 0 1-1 1z" transform="scale(0.7, 0.7) translate(5, 5)"/>
            <path d="M19 20H5a1 1 0 0 0 0 2h14a1 1 0 0 0 0-2z" transform="scale(0.7, 0.7) translate(5, 5)"/>
            <path d="M19 20H5a1 1 0 0 0 0 2h14a1 1 0 0 0 0-2z" transform="scale(0.7, 0.7) translate(5, 1.5)"/>
        </g>
    </g>
</svg>